<svg xmlns="http://www.w3.org/2000/svg" width="42" height="84" viewBox="11 -32 42 84"><circle fill="#c8c8c8" stroke="#c8c8c8" stroke-width="1.5" stroke-miterlimit="10" cx="32" cy="-11" r="19.7"/><circle stroke-width="1.5" stroke-miterlimit="10" stroke="#FFF" fill="#3c3d3d" cx="32" cy="31" r="19.7"/><path fill="#3c3d3d" d="M33.4-13.6v-2.5c0-.9.2-1.4 1.4-1.4h2.1v-3.2s-.9-.2-2.3-.2c-3.4 0-4.8 2.1-4.8 4.4v2.7h-2.5v3.4h2.5V-1h3.4v-9.4h3.4l.2-3.4h-3.4v.2z"/><path fill="#FFF" d="M33.4 28.3v-2.5c0-.9.2-1.4 1.4-1.4h2.1v-3.2s-.9-.2-2.3-.2c-3.4 0-4.8 2.1-4.8 4.4v2.7h-2.5v3.4h2.5v9.4h3.4v-9.4h3.4l.2-3.4h-3.4v.2z"/></svg>
