<svg xmlns="http://www.w3.org/2000/svg" width="42" height="84" viewBox="11 -32 42 84"><path fill="#C8C8C8" d="M32.1-31.5c-11.3 0-20.5 9.2-20.5 20.5S20.8 9.5 32.1 9.5 52.5.3 52.5-11s-9.2-20.5-20.4-20.5z"/><path fill="#3C3D3D" d="M32 12c-10.4 0-19 8.5-19 19s8.5 19 19 19 19-8.5 19-19-8.6-19-19-19z"/><path fill="#FFF" d="M32 51.5c-11.3 0-20.5-9.2-20.5-20.5S20.7 10.5 32 10.5 52.5 19.7 52.5 31 43.2 51.5 32 51.5zM32 12c-10.4 0-19 8.5-19 19s8.5 19 19 19 19-8.5 19-19-8.6-19-19-19z"/><path fill="#FFF" d="M32.1 26c-2.8 0-5.1 2.3-5.1 5s2.3 5 5.1 5 5-2.3 5-5c0-1.3-.4-2.6-1.3-3.5-1-1-2.3-1.5-3.7-1.5zm2.8 5c0 1.6-1.2 2.8-2.9 2.8-1.6 0-2.9-1.3-2.9-2.8s1.3-2.8 2.9-2.8 2.9 1.2 2.9 2.8zm3.5-5c0 .7-.6 1.3-1.4 1.3s-1.4-.6-1.4-1.3.6-1.3 1.4-1.3 1.4.6 1.4 1.3z"/><path fill="none" stroke="#FFF" stroke-width="2.4" stroke-miterlimit="10" d="M36.2 39.5h-8c-2.5 0-4.6-2.1-4.6-4.6v-8c0-2.5 2.1-4.6 4.6-4.6h8c2.5 0 4.6 2.1 4.6 4.6v8c0 2.6-2.1 4.6-4.6 4.6z"/><g><path fill="#3C3D3D" d="M32.1-16.1c-2.8 0-5.1 2.3-5.1 5s2.3 5 5.1 5 5-2.3 5-5c0-1.3-.4-2.6-1.3-3.5-1-1-2.3-1.5-3.7-1.5zm2.8 5c0 1.6-1.2 2.8-2.9 2.8-1.6 0-2.9-1.3-2.9-2.8s1.3-2.8 2.9-2.8 2.9 1.2 2.9 2.8zm3.5-5c0 .7-.6 1.3-1.4 1.3s-1.4-.6-1.4-1.3.6-1.3 1.4-1.3 1.4.6 1.4 1.3z"/><path fill="none" stroke="#3C3D3D" stroke-width="2.4" stroke-miterlimit="10" d="M36.2-2.5h-8c-2.5 0-4.6-2.1-4.6-4.6v-8c0-2.5 2.1-4.6 4.6-4.6h8c2.5 0 4.6 2.1 4.6 4.6v8c0 2.5-2.1 4.6-4.6 4.6z"/></g></svg>