<svg xmlns="http://www.w3.org/2000/svg" width="42" height="84" viewBox="11 -32 42 84"><circle fill="#C8C8C8" stroke="#C8C8C8" stroke-width="1.5" stroke-miterlimit="10" cx="32" cy="-11" r="19.7"/><circle fill="#3C3D3D" stroke="#FFF" stroke-width="1.5" stroke-miterlimit="10" cx="32" cy="31" r="19.7"/><path fill="#3C3D3D" d="M42.7-17.8c-.7.4-1.6.7-2.4.7.9-.4 1.6-1.3 1.8-2.2-.9.4-1.8.9-2.7 1.1-.7-.9-1.8-1.3-3.1-1.3-2.2 0-4.2 1.8-4.2 4.2v.9c-3.6-.2-6.7-1.8-8.7-4.5-.4.7-.7 1.3-.7 2.2 0 1.6.7 2.7 1.8 3.6-.7 0-1.3-.2-2-.4 0 2 1.6 3.8 3.3 4.2-.4 0-.7.2-1.1.2h-.9c.4 1.8 2 2.9 4 2.9-1.3 1.1-3.3 1.8-5.3 1.8h-1.1c1.8 1.1 4 2 6.5 2 7.8 0 12-6.5 12-12v-.4c1.5-1.4 2.1-2.1 2.8-3z"/><path fill="#FFF" d="M42.7 24.2c-.7.4-1.6.7-2.4.7.9-.4 1.6-1.3 1.8-2.2-.9.4-1.8.9-2.7 1.1-.7-.9-1.8-1.3-3.1-1.3-2.2 0-4.2 1.8-4.2 4.2v.9c-3.6-.2-6.7-1.8-8.7-4.5-.4.7-.7 1.3-.7 2.2 0 1.6.7 2.7 1.8 3.6-.7 0-1.3-.2-2-.4 0 2 1.6 3.8 3.3 4.2-.4 0-.7.2-1.1.2h-.9c.4 1.8 2 2.9 4 2.9-1.3 1.1-3.3 1.8-5.3 1.8h-1.1c1.8 1.1 4 2 6.5 2 7.8 0 12-6.5 12-12v-.4c1.5-1.5 2.1-2.1 2.8-3z"/></svg>