<svg xmlns="http://www.w3.org/2000/svg" width="42" height="84" viewBox="11 -32 42 84"><circle fill="#C8C8C8" stroke="#C8C8C8" stroke-width="1.5" stroke-miterlimit="10" cx="32" cy="-11" r="19.7"/><circle fill="#3C3D3D" stroke="#FFF" stroke-width="1.5" stroke-miterlimit="10" cx="32" cy="31" r="19.7"/><path fill="#3C3D3D" d="M37.6-18.1H26.3c-2.4 0-4.2 1.8-4.2 4.2v5.5c0 2.4 1.8 4.2 4.2 4.2h11.3c2.4 0 4.2-1.8 4.2-4.2v-5.5c.3-2.1-1.8-4.2-4.2-4.2zM29.2-6.5v-8.7l7.1 4.2-7.1 4.5z"/><path fill="#FFF" d="M37.6 23.9H26.3c-2.4 0-4.2 1.8-4.2 4.2v5.5c0 2.4 1.8 4.2 4.2 4.2h11.3c2.4 0 4.2-1.8 4.2-4.2v-5.5c.3-2.1-1.8-4.2-4.2-4.2zm-8.4 11.5v-8.7l7.1 4.2-7.1 4.5z"/></svg>