<svg xmlns="http://www.w3.org/2000/svg" width="42" height="84" viewBox="11 -32 42 84"><circle fill="#C8C8C8" stroke="#C8C8C8" stroke-width="1.5" stroke-miterlimit="10" cx="32" cy="-11" r="19.7"/><circle fill="#3C3D3D" stroke="#FFF" stroke-width="1.5" stroke-miterlimit="10" cx="32" cy="31" r="19.7"/><path fill="#3C3D3D" d="M37.5-16.1c-2.8 0-5.1 2.3-5.1 5.1s2.3 5.1 5.1 5.1 5.1-2.3 5.1-5.1-2.3-5.1-5.1-5.1zm-11 0c-2.8 0-5.1 2.3-5.1 5.1s2.3 5.1 5.1 5.1 5.1-2.3 5.1-5.1-2.3-5.1-5.1-5.1z"/><path fill="#FFF" d="M37.5 25.9c-2.8 0-5.1 2.3-5.1 5.1s2.3 5.1 5.1 5.1 5.1-2.3 5.1-5.1-2.3-5.1-5.1-5.1zm-11 0c-2.8 0-5.1 2.3-5.1 5.1s2.3 5.1 5.1 5.1 5.1-2.3 5.1-5.1-2.3-5.1-5.1-5.1z"/></svg>