<svg xmlns="http://www.w3.org/2000/svg" width="42" height="84" viewBox="11 -32 42 84"><circle fill="#C8C8C8" stroke="#C8C8C8" stroke-width="1.5" stroke-miterlimit="10" cx="32" cy="-11" r="19.7"/><circle fill="#3C3D3D" stroke="#FFF" stroke-width="1.5" stroke-miterlimit="10" cx="32" cy="31" r="19.7"/><path fill="#3C3D3D" d="M32.1-.9H31.8c-1.3 0-2.1-.6-2.9-1.1-.5-.4-1.1-.7-1.7-.8-.3 0-.6-.1-.9-.1-.5 0-.9.1-1.2.1-.2 0-.3.1-.5.1-.1 0-.3 0-.3-.2-.1-.2-.1-.3-.1-.5-.1-.4-.2-.7-.3-.7-2-.3-2.6-.7-2.7-1v-.1c0-.1.1-.2.2-.2 3.1-.5 4.5-3.7 4.5-3.8.2-.4.2-.7.1-1-.2-.5-.9-.7-1.4-.9-.1 0-.2-.1-.3-.1-.9-.4-1-.7-1-.9.1-.3.5-.5.8-.5.1 0 .2 0 .3.1.4.2.8.3 1.1.3.4 0 .6-.2.7-.2v-.7c-.1-1.5-.2-3.3.3-4.3 1.4-3.1 4.3-3.4 5.2-3.4h.5c.9 0 3.8.2 5.2 3.4.5 1 .3 2.9.3 4.3v.7s.2.2.6.2c.3 0 .7-.1 1-.3.1-.1.2-.1.3-.1.1 0 .3 0 .4.1.3.1.5.3.5.6 0 .2-.2.5-1 .9-.1 0-.2.1-.3.1-.5.1-1.2.4-1.4.9-.1.3-.1.6.1 1 .1.1 1.4 3.3 4.5 3.8.1 0 .2.1.2.2v.1c-.1.3-.7.7-2.7 1-.2 0-.2.2-.3.7 0 .2-.1.3-.1.5 0 .1-.1.2-.3.2-.1 0-.3 0-.5-.1-.3-.1-.7-.1-1.2-.1-.3 0-.6 0-.9.1-.6.1-1.1.5-1.7.8-.7.3-1.5.9-2.8.9z"/><path fill="#FFF" d="M32.1 41.1H31.8c-1.3 0-2.1-.6-2.9-1.1-.5-.4-1.1-.7-1.7-.8-.3 0-.6-.1-.9-.1-.5 0-.9.1-1.2.1-.2 0-.3.1-.5.1-.1 0-.3 0-.3-.2-.1-.2-.1-.3-.1-.5-.1-.4-.2-.7-.3-.7-2-.3-2.6-.7-2.7-1v-.1c0-.1.1-.2.2-.2 3.1-.5 4.5-3.7 4.5-3.8.2-.4.2-.7.1-1-.2-.5-.9-.7-1.4-.9-.1 0-.2-.1-.3-.1-.9-.4-1-.7-1-.9.1-.3.5-.5.8-.5.1 0 .2 0 .3.1.4.2.8.3 1.1.3.4 0 .6-.2.7-.2v-.7c-.1-1.5-.2-3.3.3-4.3 1.4-3.1 4.3-3.4 5.2-3.4h.5c.9 0 3.8.2 5.2 3.4.5 1 .3 2.9.3 4.3v.7s.2.2.6.2c.3 0 .7-.1 1-.3.1-.1.2-.1.3-.1.1 0 .3 0 .4.1.3.1.5.3.5.6 0 .2-.2.5-1 .9-.1 0-.2.1-.3.1-.5.1-1.2.4-1.4.9-.1.3-.1.6.1 1 .1.1 1.4 3.3 4.5 3.8.1 0 .2.1.2.2v.1c-.1.3-.7.7-2.7 1-.2 0-.2.2-.3.7 0 .2-.1.3-.1.5 0 .1-.1.2-.3.2-.1 0-.3 0-.5-.1-.3-.1-.7-.1-1.2-.1-.3 0-.6 0-.9.1-.6.1-1.1.5-1.7.8-.7.3-1.5.9-2.8.9z"/></svg>