<svg xmlns="http://www.w3.org/2000/svg" width="20" height="20" viewBox="0 0 20 20"><path fill="#555" d="M17 3.9h-1.8v.8c0 .6-.5 1.1-1.2 1.1-.6 0-1.2-.5-1.2-1.1v-.8H7.2v.8c0 .6-.5 1.1-1.2 1.1-.6 0-1.2-.5-1.2-1.1v-.8H3c-.5 0-1 .4-1 1v11.7c0 .5.4 1 1 1h14c.5 0 1-.4 1-1V4.8c0-.5-.4-.9-1-.9zm-.1 12.5H3.1V6.6h13.8v9.8zM6.7 4.7c0 .4-.3.7-.7.7-.4 0-.7-.3-.7-.7V3.2c0-.4.3-.7.7-.7.4 0 .7.3.7.7v1.5zm8-1.5c0-.4-.3-.7-.7-.7-.4 0-.7.3-.7.7v1.5c0 .4.3.7.7.7.4 0 .7-.3.7-.7V3.2zM9.5 7.4H7.2v2.3h2.3V7.4zm3.3 0h-2.3v2.3h2.3V7.4zm3.2 0h-2.3v2.3H16V7.4zm-9.7 3H4v2.3h2.3v-2.3zm3.2 0H7.2v2.3h2.3v-2.3zm3.3 0h-2.3v2.3h2.3v-2.3zm3.2 0h-2.3v2.3H16v-2.3zm-9.7 2.9H4v2.3h2.3v-2.3zm3.2 0H7.2v2.3h2.3v-2.3zm3.3 0h-2.3v2.3h2.3v-2.3z"/></svg>