<svg xmlns="http://www.w3.org/2000/svg" viewBox="0 0 435 23.35" class="wusm-logo" aria-labelledby="title"><title id="title">Washington University School of Medicine in St. Louis</title><defs><style>.cls-2{fill:#fff;}.cls-2,.cls-6{fill-rule:evenodd;}.cls-3,.cls-6{fill:#007361;}.cls-4{fill:#e1c4ac;}.cls-5{fill:#a41e22;}.cls-7{fill:#fff;}</style></defs><g><g fill="#FFF" class="wusm-logo-text"><path d="M42.46,1.6a1.11,1.11,0,0,0,.48-.16c0-.21,0-.26-.34-.26-.57,0-.91.1-1.47.1S40,1.2,39.52,1.2c-.29,0-.27.09-.27.26s.57.07.88.78a2.59,2.59,0,0,1-.07,1.65L35.71,15.81l-1.86-5.3-.73-1.93S33,8.64,33.54,7l1-3.06c.5-1.51,1-2.3,1.63-2.31.8,0,.8-.49.19-.49s-1,0-1.52,0-.86,0-1.47,0c-.23,0-.48.07-.45.26s.36.12.61.26a1.78,1.78,0,0,1,.39,2l-1.2,3.84L31.36,4c-.27-.68-.63-2.18,0-2.32s.55-.46.16-.46c-.75,0-1.14.1-1.87.1s-1.38-.1-2.13-.1c-.16,0-.45,0-.36.33s.43.12.66.26A3.66,3.66,0,0,1,29.26,4l2,5.63c.36,1,.39.64.09,1.51L29.6,15.86,25.32,3.6c-.34-.92-.52-1.56.23-1.91.32-.16.41-.2.45-.26s.08-.28-.39-.26c-.77,0-1.25.1-2,.1s-1.38-.1-2.13-.1c-.25,0-.29.12-.29.31s.61.1,1.13.71A8.43,8.43,0,0,1,23.3,4l5.17,14.86c.09.22.12.65.42.65s.28-.5.37-.69L32,11.39l2.65,7.09c.11.28.27,1.06.54,1.06s.31-.37.43-.72L40.72,4.16C41.15,3,41.65,1.74,42.46,1.6Z"/><path d="M99.3,7.42c-2.83,0-5,2.85-5,6.19a6.3,6.3,0,0,0,1.23,4,2.93,2.93,0,0,1-1.87.6c-.93,0-1.47-.55-1.51-1.74V9.23h2.94c.19,0,.56-1.25.58-1.32s.09-.28.1-.4-.15-.26-.32,0a1,1,0,0,1-.86.48H92.14c0-2.09,0-3-.3-3s-.26.09-.55,1A4.3,4.3,0,0,1,89,8.28a2.52,2.52,0,0,1-1.12,0,7.81,7.81,0,0,0-3.32-.91,3.91,3.91,0,0,0-3.87,4,3.58,3.58,0,0,0,1.49,3A2.76,2.76,0,0,0,81,16.57a1.76,1.76,0,0,0,.91,1.58,2.71,2.71,0,0,0-.84.55c-.61-.22-1.5-.05-1.5-1.65V12.63c0-2-.65-5-3.67-5-2.18,0-3.31,2.07-3.26,1.75V7.84c0-.27-.13-.43-.27-.43-.52,0-.63.86-2.52,1.35-.11,0-.37.09-.38.29,0,.56,1.52-.61,1.53,1.47v6.64a1.29,1.29,0,0,1-1.33,1.45h-.27c-.48,0-1.31-.26-1.31-1.16V7.84c0-.27-.14-.43-.27-.43-.52,0-.85.94-2.29,1.42-.11,0-.32,0-.32.21,0,.56,1.29-.53,1.24,1.47v6.32c0,1.54-.75,1.75-1.25,1.77s-1.06-.32-1.06-1.23V12.9c0-2.3-.88-5.27-3.76-5.27a4.4,4.4,0,0,0-3.24,1.67V1.6c0-.27-.14-.42-.27-.43-.35,0-.93,1-2.57,1.41-.11,0-.54.06-.54.22,0,.56,1.7-.27,1.73,1.47V17.39c0,1.31-1.12,1.13-1.33,1.55a.2.2,0,0,0,.23.27c.36,0,1.35-.11,2-.11s1.82.11,2.29.11c.27,0,.38-.05.38-.37-.23-.46-2,.24-2-2.06V11.13a2.82,2.82,0,0,1,2.63-2.41c.79,0,2.72.62,2.72,3.94v4.9c0,1-1,1.06-1.1,1.37s.13.29.36.29,1-.11,1.84-.11c.49,0,.93,0,1.31,0a5.25,5.25,0,0,0,.85,0c.25,0,.86-.09,1.58-.09s1.28.06,1.73.09h1c.27,0,.72-.11,1.91-.11s1.75.11,2.14.11.73-.15.49-.37-2,.05-2-1.79V10.89A2.64,2.64,0,0,1,75.3,8.8c1.82,0,2.63,2,2.63,3.35v5c0,1.74-.7,1.34-1,1.74-.15.22.11.32.4.32s.76-.11,1.62-.11a15.77,15.77,0,0,1,1.66.09,2.41,2.41,0,0,0-.45,1.22c-.12,2.18,2.55,3,4.79,2.93,4.45-.06,5.71-3.15,4.78-4.78s-3-1.62-4.93-1.61c-3.65,0-3-2.25-1.47-2.16a5.42,5.42,0,0,0,1.36.12,3.83,3.83,0,0,0,4.08-3.8,3.65,3.65,0,0,0-.46-1.86h2.09v6.62c0,3,1.42,3.5,2.49,3.5a3.32,3.32,0,0,0,2.81-1.46,4.76,4.76,0,0,0,3.58,1.46c2.77,0,4.86-2.55,4.86-5.89C104.18,8.42,101,7.42,99.3,7.42ZM83,18.37c.18,0,.23.07,2.29.15s2.9.67,3,1.22c.23,1-.46,3.06-3.52,2.86a3,3,0,0,1-2.63-1.25C81.47,20.33,82.06,18.43,83,18.37Zm1.75-4c-1.81,0-2.41-1.74-2.41-3.39s.51-3.11,2.32-3.11,2.56,1.88,2.56,3.53S86.48,14.4,84.77,14.4Zm14.75,4.18c-2.63,0-3.67-3.26-3.67-5.92,0-2.31.9-4.43,3.1-4.43,2.68,0,3.64,2.86,3.64,5.65C102.6,17.24,101.41,18.58,99.52,18.58Z"/><path d="M113.84,17V12.63c0-2-.65-5-3.67-5-2.18,0-3.31,2.07-3.26,1.75V7.84c0-.27-.14-.43-.27-.43-.52,0-.9.88-2.66,1.41-.11,0-.44,0-.45.23,0,.56,1.77-.73,1.74,1.47v6.64c0,1.74-1.17,1.32-1.44,1.78-.14.23.22.29.51.29s.72-.11,1.91-.11,1.75.11,2.14.11.73-.15.49-.37-2,.05-2-1.79V10.89a2.64,2.64,0,0,1,2.65-2.09c1.82,0,2.63,2,2.63,3.35v5c0,2-.7,1.34-1,1.74-.15.22.11.32.4.32s.77-.11,1.62-.11c1.1,0,1.58.1,1.88.1s.63-.17.38-.38C114.94,18.38,113.82,19.07,113.84,17Z"/><path d="M67.22,6.6c.29,0,.92-1,.92-1.36s-.64-1.38-.92-1.38-.92,1.1-.92,1.38S67,6.6,67.22,6.6Z"/><path d="M52.19,12.64c-.44-.21-1.1-.59-1.43-.77-1.41-.77-2-1.28-2-2a1.71,1.71,0,0,1,1.92-1.81c2.2,0,2.5,2.43,2.72,2.43s.25-.32.25-1.05a4.42,4.42,0,0,0-.11-1.32c-.27-.41-1.83-.64-2.21-.64h-.76a2.81,2.81,0,0,0-3,3.07c0,1.92,2.29,3,3.51,3.73.9.51,2,1,1.94,2.23a2.18,2.18,0,0,1-2.27,2.25c-2.73,0-2.36-3.48-2.85-3.48-.34,0-.27.86-.27,1.32s0,.85,0,1.19-.18.6-.47.62c-1.08.06-.82-1.65-.82-2.56V10.27C46.27,8.56,45,7.44,43,7.44c-2.69,0-4.61,3.31-3.7,4.34.22.25,1.09-.7,1.15-.75a.22.22,0,0,0,.06-.11A2.7,2.7,0,0,1,42.6,8.23c1.39-.14,2.08.9,2.08,2.3v1.82c-5.26,1.05-6,2.8-6,4.23a2.62,2.62,0,0,0,2.81,2.77,4.88,4.88,0,0,0,3.44-1.56,1.76,1.76,0,0,0,1.75,1.4c.3,0,.35.08,1.27-.32a1,1,0,0,1,.67,0,5.86,5.86,0,0,0,2.31.5,3.52,3.52,0,0,0,3.34-3.63C54.26,14.49,53.9,13.7,52.19,12.64Zm-7.32,3.75a2.36,2.36,0,0,1-2.26,2.19c-1.19,0-2-.78-2-2.31,0-2.37,2.85-2.81,4.29-3.18Z"/><path d="M206.14,9.47c-.65-.32-1.61-.9-2.08-1.18-2.06-1.18-2.87-2-2.93-3.06a2.9,2.9,0,0,1,3.11-2.91c1.7,0,3.1,1,3.68,3.24.06.23.27.77.49.77s.23-.18.21-.39l-.29-3.49c0-.28-.11-.36-.23-.36s-.31.28-.48.28a5.54,5.54,0,0,0-3.3-.95,3.11,3.11,0,0,0-.37,0c-2.28,0-4.43,1.48-4.36,4.69.06,2.93,3.34,4.6,5.11,5.72,1.31.78,2.68,2,2.64,3.43-.07,2.14-1.41,3.54-3.11,3.42-4-.07-3.44-5.32-4.16-5.32-.49,0-.39,1.32-.39,2a13,13,0,0,0,.12,3.27c.06.08.25,0,.64,0,.79,0,1.74.91,4,.91,2.57,0,4.67-2.33,4.67-5.43C209.15,12.3,208.62,11.09,206.14,9.47Z"/><path d="M331.94,6.6c.29,0,.92-1,.92-1.36s-.64-1.38-.92-1.38S331,5,331,5.24,331.67,6.6,331.94,6.6Z"/><path d="M343.94,17V12.63c0-2-.65-5-3.67-5-2.18,0-3.31,2.07-3.26,1.75V7.84c0-.27-.14-.43-.27-.43-.52,0-.9.88-2.66,1.41-.11,0-.44,0-.45.23,0,.56,1.77-.73,1.74,1.47v6.64c0,1.25-.61,1.34-1.05,1.46h-.08c-.45,0-1.41-.2-1.41-1.17V7.84c0-.27-.13-.43-.27-.43-.52,0-.85.94-2.29,1.42-.11,0-.32,0-.32.21,0,.56,1.29-.53,1.24,1.47v6.32c0,1.62-.83,1.77-1.32,1.77-.73,0-.55.08-.55.31s.46.29,1.18.29c.25,0,.86-.09,1.58-.09.92,0,1.62.11,2.09.11.27,0,1-.11,2.19-.11s1.76.11,2.14.11.73-.15.5-.37-2,.05-2-1.79V10.89a2.64,2.64,0,0,1,2.65-2.09c1.82,0,2.63,2,2.63,3.35v5c0,2-.7,1.34-1,1.74-.15.22.11.32.4.32s.77-.11,1.62-.11c1.1,0,1.58.1,1.88.1s.63-.17.38-.38C345,18.38,343.92,19.07,343.94,17Z"/><path d="M358.12,6.6c.29,0,.92-1,.92-1.36s-.64-1.38-.92-1.38-.92,1.1-.92,1.38S357.86,6.6,358.12,6.6Z"/><path d="M370.12,17V12.63c0-2-.65-5-3.67-5-2.18,0-3.31,2.07-3.26,1.75V7.84c0-.27-.14-.43-.27-.43-.52,0-.9.88-2.66,1.41-.11,0-.44,0-.45.23,0,.56,1.77-.73,1.74,1.47v6.64c0,1.25-.61,1.34-1.05,1.46h-.08c-.45,0-1.41-.2-1.41-1.17V7.84c0-.27-.13-.43-.27-.43-.52,0-.85.94-2.29,1.42-.11,0-.32,0-.32.21,0,.56,1.29-.53,1.24,1.47v6.32c0,1.62-.83,1.77-1.32,1.77-.73,0-.55.08-.55.31s.46.29,1.18.29c.25,0,.86-.09,1.58-.09.92,0,1.62.11,2.09.11.27,0,1-.11,2.19-.11s1.76.11,2.14.11.73-.15.5-.37-2,.05-2-1.79V10.89a2.64,2.64,0,0,1,2.65-2.09c1.82,0,2.63,2,2.63,3.35v5c0,2-.7,1.34-1,1.74-.15.22.11.32.4.32s.77-.11,1.62-.11c1.1,0,1.58.1,1.88.1s.63-.17.38-.38C371.23,18.38,370.11,19.07,370.12,17Z"/><path d="M392.17,16.56c-.27,0-.93,1.12-.93,1.41s.67,1.39.93,1.39.93-1.07.93-1.39S392.46,16.56,392.17,16.56Z"/><path d="M421.44,17.53V8.12c0-.53-.3-.67-.38-.67a2.7,2.7,0,0,0-.76.14,2.73,2.73,0,0,1-1.12.21c-.11,0-.69-.1-.66.22s1.36.13,1.37,1.07v6.8a2.69,2.69,0,0,1-2.31,2.5c-.28,0-2.08-.2-2.06-3.17V8.12c0-.53-.3-.67-.38-.67a2.7,2.7,0,0,0-.76.14,2.65,2.65,0,0,1-1.14.17c-.33,0-.69-.06-.63.25S414,8,414,9.08V15.6c0,2.38,1.4,3.75,3.09,3.75a2.76,2.76,0,0,0,2.82-1.56h0v1.14c0,.11,0,.42.19.42s.49-.26.72-.35a2.68,2.68,0,0,1,1.11-.36c.34,0,.71-.21.71-.43C422.55,17.74,421.44,18.26,421.44,17.53Z"/><path d="M408.16,7.42c-2.83,0-5,2.85-5,6.19a6.55,6.55,0,0,0,1,3.67c-.69.49-1.94,1-4.31,1-1.85,0-1.68-.64-1.68-2.21V3.48c0-2.32,1.73-1.64,1.77-2.06s-.24-.23-.53-.23-.93.13-2.18.13c-1.08,0-2-.1-2.5-.1-.29,0-.55.08-.45.3.22.49,1.85,0,1.85,1.43V16.06c0,1.25.19,2.05-.39,2.37s-1.53.45-1.46.72.39.18.59.18c.88,0,2.1-.11,3-.13,1.68-.05,3.35.11,5,.11,1,0,1.22-.2,1.92-1.15l0,0a4.81,4.81,0,0,0,3.36,1.25c2.77,0,4.86-2.55,4.86-5.89C413,8.42,409.87,7.42,408.16,7.42Zm.23,11.16c-2.63,0-3.67-3.26-3.67-5.92,0-2.31.9-4.43,3.1-4.43,2.68,0,3.64,2.86,3.64,5.65C411.47,17.24,410.28,18.58,408.39,18.58Z"/><path d="M380.57,9.47c-.65-.32-1.61-.9-2.08-1.18-2.06-1.18-2.87-2-2.93-3.06a2.9,2.9,0,0,1,3.11-2.91c1.7,0,3.1,1,3.68,3.24.06.23.27.77.49.77s.23-.18.21-.39l-.29-3.49c0-.28-.11-.36-.23-.36s-.31.28-.48.28a5.54,5.54,0,0,0-3.3-.95,3.11,3.11,0,0,0-.37,0c-2.28,0-4.43,1.48-4.36,4.69.06,2.93,3.34,4.6,5.11,5.72,1.31.78,2.68,2,2.64,3.43-.07,2.14-1.41,3.54-3.11,3.42-4-.07-3.44-5.32-4.16-5.32-.49,0-.39,1.32-.39,2a13,13,0,0,0,.12,3.27c.06.08.25,0,.64,0,.79,0,1.74.91,4,.91,2.57,0,4.67-2.33,4.67-5.43C383.58,12.3,383.05,11.09,380.57,9.47Z"/><path d="M425.45,6.6c.29,0,.92-1,.92-1.36s-.64-1.38-.92-1.38-.92,1.1-.92,1.38S425.19,6.6,425.45,6.6Z"/><path d="M427.74,18.62c-.45,0-1.41-.2-1.41-1.17V7.84c0-.27-.14-.43-.27-.43-.52,0-.85.94-2.29,1.42-.11,0-.32,0-.32.21,0,.56,1.29-.53,1.24,1.47v6.32c0,1.62-.83,1.78-1.32,1.77s-.55.08-.55.31.46.29,1.18.29c.25,0,.86-.09,1.58-.09.92,0,1.62.11,2.09.11C428,19.21,428.34,18.52,427.74,18.62Z"/><path d="M432.93,12.63c-.44-.21-1.1-.59-1.43-.77-1.41-.77-2-1.28-2-2a1.71,1.71,0,0,1,1.92-1.81c2.2,0,2.5,2.43,2.72,2.43s.25-.32.25-1.05a4.46,4.46,0,0,0-.11-1.32c-.27-.4-1.83-.64-2.21-.64h-.77a2.81,2.81,0,0,0-3,3.07c0,1.91,2.29,3,3.51,3.73.9.51,2,1,1.94,2.23a2.18,2.18,0,0,1-2.27,2.25c-2.73,0-2.36-3.48-2.85-3.48-.34,0-.27.86-.27,1.32a8,8,0,0,0,.08,2.14s.17,0,.44,0a11.47,11.47,0,0,0,2.77.6A3.52,3.52,0,0,0,435,15.73C435,14.48,434.64,13.69,432.93,12.63Z"/><path d="M390.62,17.56a3.13,3.13,0,0,1-2,.67c-.93,0-1.46-.55-1.51-1.74V8.83h2.93c.19,0,.56-1.25.58-1.32s.09-.29.1-.4-.15-.26-.32,0a1,1,0,0,1-.86.48h-2.44c0-2.09,0-2.64-.3-2.64s-.26.08-.55,1c-.47,1.56-2.18,2.24-2.73,2.58-.13.07-.13.09-.13.17s.65.12,2,.15v7c0,3,1.42,3.5,2.49,3.5a3.2,3.2,0,0,0,2.85-1.56C390.78,17.56,390.75,17.54,390.62,17.56Z"/><path d="M163.74,16.6c-.49,0-1.24,1.41-3.18,1.41-1.37,0-3.63-1.33-3.63-5.78h6c.52,0,.77,0,.77-.46,0-1.08-1.22-4.3-4-4.3s-4.42,2.89-4.42,6.35c0,1.78,1.17,5.54,4.55,5.54,2,0,4-1.94,4-2.57C163.83,16.71,163.83,16.6,163.74,16.6Zm-4.41-8.51a2.85,2.85,0,0,1,2.5,2.86c0,.41-.13.54-.45.54h-4.44C156.93,10,157.92,8.09,159.32,8.09Z"/><path d="M131.8,1.72c.09-.14-.22-.21-.32-.21-.36,0-1.19.09-1.56.09-.78,0-1.42-.07-2.2-.07-.06,0-.4,0-.4.16,0,.55,1.85-.09,1.85,2.25v9.18c0,2.71-.85,5.57-4.59,5.57-2.68,0-4.14-1.68-4.14-5.36v-10c0-1.66,1.3-1.3,1.32-1.67s-1.15-.14-1.25-.14c-.62,0-1.05.06-1.69.06s-1.19-.08-1.7-.08c-.1,0-.47,0-.53.13-.2.49,1.66.23,1.66,1.59v9.48c0,3.54,1,7,6.22,6.92,6.2-.1,6.08-5.68,6.08-6.81V4C130.57,1.84,131.6,2,131.8,1.72Z"/><path d="M156.28,8c.15-.18.2-.46-.5-.4-.38,0-.67.07-1.06.07s-.59,0-1.06,0-.75,0-.72.22c.1.53,1.34,0,1.18,1.56a13.81,13.81,0,0,1-1,3.53l-1.51,4-2.21-6.68A9.55,9.55,0,0,1,149,8.93c0-.84,1-.64,1.23-1s-.15-.34-.47-.34-.58.09-1.41.11a8.52,8.52,0,0,1-1.48,0c-.78-.14-.71.29-.44.42s.4,0,.79,1.17l3.4,9.6c.07.19.16.67.45.67s.34-.33.77-1.47c0,0,3.25-9.1,3.48-9.43C155.79,8,156.12,8.2,156.28,8Z"/><path d="M168.84,7.58c-.92,0-1.57,1.11-2,1.88h0V7.79c0-.26-.13-.42-.26-.42-.35,0-.62.71-2.49,1.15-.11,0-.42.09-.42.25,0,.56,1.58-.17,1.58,1.67v7c0,1.08-1.12,1-1.12,1.54,0,.16.07.24.24.24a15.14,15.14,0,0,1,2-.11c1.23,0,1.75.11,2.06.11s.35-.05.35-.29c0-.85-1.95.42-1.95-2v-6c0-.34.53-1.56,1.42-1.56s.89.61,1.3.61c.26,0,.79-.79.79-1.19S169.3,7.58,168.84,7.58Z"/><path d="M197.11,7.67c-.23,0-.84,0-1.38,0s-1-.08-1.26-.08-.83,0-.76.28,1.5.2,1.5,1.75a5.12,5.12,0,0,1-.28,1.49l-1.81,5.76-2.51-7.08a1.62,1.62,0,0,1-.12-.69c0-1.14,1.34-1,1.39-1.22s-.18-.34-.54-.34h-5.62c0-2.09,0-2.64-.3-2.64s-.26.09-.55,1c-.47,1.56-2.18,2.24-2.73,2.58-.13.07-.13.09-.13.17s.65.12,2,.15v7c0,3,1.42,3.5,2.49,3.5a3.19,3.19,0,0,0,2.85-1.56c0-.23,0-.25-.16-.23a3.12,3.12,0,0,1-2,.67c-.93,0-1.46-.55-1.51-1.74V8.83h2.78a.76.76,0,0,1,.09.17l2.6,7.34a12.42,12.42,0,0,1,.59,1.86,4.36,4.36,0,0,1,.11,1.31c-.25,1.1-.93,1.74-2,3.77-.1.2,1.49,0,1.57,0s.11-.08.27-.36l1.15-3.42,3.21-9.85c.47-1.72,1.21-1.41,1.33-1.64S197.39,7.67,197.11,7.67Z"/><polygon points="192.96 19.27 192.9 19.44 192.89 19.48 192.96 19.27"/><path d="M180.15,6.6c.29,0,.92-1,.92-1.36s-.64-1.38-.92-1.38-.92,1.1-.92,1.38S179.89,6.6,180.15,6.6Z"/><path d="M182.44,18.62c-.45,0-1.41-.2-1.41-1.17V7.84c0-.27-.14-.43-.27-.43-.52,0-.85.94-2.29,1.42-.11,0-.32,0-.32.21,0,.56,1.29-.53,1.24,1.47v6.32c0,1.62-.83,1.77-1.32,1.77-.73,0-.55.08-.55.31s.46.29,1.18.29c.25,0,.86-.09,1.58-.09.92,0,1.62.11,2.09.11C182.67,19.21,183,18.52,182.44,18.62Z"/><path d="M303.53,16.6c-.49,0-1.24,1.41-3.18,1.41-1.37,0-3.63-1.33-3.63-5.78h6c.52,0,.77,0,.77-.46,0-1.08-1.22-4.3-4-4.3s-4.42,2.89-4.42,6.35c0,1.78,1.17,5.54,4.55,5.54,2,0,4-1.94,4-2.57C303.62,16.71,303.62,16.6,303.53,16.6Zm-4.41-8.51a2.85,2.85,0,0,1,2.5,2.86c0,.41-.13.54-.45.54h-4.44C296.73,10,297.72,8.09,299.12,8.09Z"/><path d="M353.37,16.6c-.49,0-1.24,1.41-3.18,1.41-1.37,0-3.63-1.33-3.63-5.78h6c.52,0,.77,0,.77-.46,0-1.08-1.22-4.3-4-4.3s-4.42,2.89-4.42,6.35c0,1.78,1.17,5.54,4.55,5.54,2,0,4-1.94,4-2.57C353.46,16.71,353.46,16.6,353.37,16.6ZM349,8.09a2.85,2.85,0,0,1,2.5,2.86c0,.41-.13.54-.45.54h-4.44C346.57,10,347.56,8.09,349,8.09Z"/><path d="M318.14,6.6c.29,0,.92-1,.92-1.36s-.64-1.38-.92-1.38-.92,1.1-.92,1.38S317.88,6.6,318.14,6.6Z"/><path d="M320.43,18.62c-.45,0-1.41-.2-1.41-1.17V7.84c0-.27-.14-.43-.27-.43-.52,0-.85.94-2.29,1.42-.11,0-.32,0-.32.21,0,.56,1.29-.53,1.24,1.47v6.32c0,1.62-.83,1.78-1.32,1.77-.27,0-.55.08-.55.31s.46.29,1.18.29c.25,0,.86-.09,1.58-.09.92,0,1.62.11,2.09.11C320.66,19.21,321,18.52,320.43,18.62Z"/><path d="M144.59,6.6c.29,0,.92-1,.92-1.36s-.64-1.38-.92-1.38-.92,1.1-.92,1.38S144.33,6.6,144.59,6.6Z"/><path d="M146.88,18.62c-.45,0-1.41-.2-1.41-1.17V7.84c0-.27-.13-.43-.27-.43-.52,0-.85.94-2.29,1.42-.11,0-.32,0-.32.21,0,.56,1.29-.53,1.24,1.47v6.32c0,1.62-.83,1.77-1.32,1.77h-.16c-.47-.08-.91-.28-.91-1.56V12.63c0-2-.65-5-3.67-5-2.18,0-3.31,2.07-3.26,1.75V7.84c0-.27-.14-.43-.27-.43-.52,0-.9.88-2.66,1.41-.11,0-.44,0-.45.23,0,.56,1.77-.73,1.74,1.47v6.64c0,1.74-1.17,1.32-1.44,1.78-.14.23.22.29.51.29s.72-.11,1.91-.11,1.75.11,2.14.11.73-.15.5-.37-2,.05-2-1.79V10.89a2.64,2.64,0,0,1,2.65-2.09c1.82,0,2.63,2,2.63,3.35v5c0,2-.7,1.34-1,1.74-.15.22.11.32.4.32s.77-.11,1.62-.11c1.1,0,1.58.1,1.88.1h.41c.25,0,.86-.09,1.58-.09.92,0,1.62.11,2.09.11C147.11,19.21,147.48,18.52,146.88,18.62Z"/><path d="M175.3,12.63c-.44-.21-1.1-.59-1.43-.77-1.41-.77-2-1.28-2-2A1.71,1.71,0,0,1,173.78,8c2.2,0,2.5,2.43,2.72,2.43s.25-.32.25-1.05a4.41,4.41,0,0,0-.11-1.32c-.27-.4-1.83-.64-2.21-.64h-.76a2.8,2.8,0,0,0-3,3.07c0,1.91,2.29,3,3.51,3.73.9.51,2,1,1.94,2.23a2.18,2.18,0,0,1-2.27,2.25c-2.73,0-2.36-3.48-2.85-3.48-.34,0-.27.86-.27,1.32a8.14,8.14,0,0,0,.08,2.14s.17,0,.44,0a11.47,11.47,0,0,0,2.77.6,3.52,3.52,0,0,0,3.34-3.63C177.37,14.48,177,13.68,175.3,12.63Z"/><path d="M230.09,19.2s.3,0,.2-.3-.42-.27-.83-.31c-.57-.05-1-.34-1-1.22V12.9c0-2.3-.88-5.27-3.76-5.27a4.4,4.4,0,0,0-3.24,1.67V1.6c0-.27-.14-.42-.27-.43-.35,0-.93,1-2.57,1.41-.11,0-.54.06-.54.22,0,.56,1.7-.27,1.73,1.47V17.39c0,1.31-1.12,1.13-1.33,1.55a.2.2,0,0,0,.23.27c.36,0,1.35-.11,2-.11s1.82.11,2.29.11c.27,0,.38-.05.38-.37-.23-.46-2,.24-2-2.06V11.13a2.82,2.82,0,0,1,2.63-2.41c.79,0,2.72.62,2.72,3.94v4.9c0,1-1,1.06-1.1,1.37s.13.29.36.29,1-.11,1.84-.11c.49,0,.93,0,1.31,0a5.25,5.25,0,0,0,.85,0"/><path d="M257.58,17.3a5.54,5.54,0,0,0,.68.81,4.81,4.81,0,0,0,3.36,1.25c2.77,0,4.86-2.55,4.86-5.89,0-5-3.17-6.05-4.88-6.05-2.83,0-5,2.85-5,6.19a6.55,6.55,0,0,0,1,3.67m4.26,1.3c-2.63,0-3.67-3.26-3.67-5.92,0-2.31.9-4.43,3.1-4.43,2.68,0,3.64,2.86,3.64,5.65C264.91,17.24,263.72,18.58,261.83,18.58Z"/><path d="M241.11,17.3a5.54,5.54,0,0,0,.68.81,4.81,4.81,0,0,0,3.36,1.25c2.77,0,4.86-2.55,4.86-5.89,0-5-3.17-6.05-4.88-6.05-2.83,0-5,2.85-5,6.19a6.55,6.55,0,0,0,1,3.67m4.26,1.3c-2.63,0-3.67-3.26-3.67-5.92,0-2.31.9-4.43,3.1-4.43,2.68,0,3.64,2.86,3.64,5.65C248.44,17.24,247.25,18.58,245.36,18.58Z"/><path d="M230.55,17.3a5.54,5.54,0,0,0,.68.81,4.81,4.81,0,0,0,3.36,1.25c2.77,0,4.86-2.55,4.86-5.89,0-5-3.17-6.05-4.88-6.05-2.83,0-5,2.85-5,6.19a6.55,6.55,0,0,0,1,3.67m4.26,1.3c-2.63,0-3.67-3.26-3.67-5.92,0-2.31.9-4.43,3.1-4.43,2.68,0,3.64,2.86,3.64,5.65C237.88,17.24,236.69,18.58,234.8,18.58Z"/><path d="M209.69,13.6c0-3.4,2.21-6.19,5.3-6.19,1.22,0,2.89.38,3,1s0,1.25,0,1.6-.07.57-.2.57-.51-.52-.59-.62a3.44,3.44,0,0,0-3-1.66c-2.08,0-2.68,2.39-2.68,4.35,0,2.93,1.36,5.35,4.12,5.35,1.91,0,3-1.58,3.36-1.58.07,0,.2.08.2.16,0,.44-1.47,2.77-4.82,2.77C211.51,19.36,209.69,16.62,209.69,13.6Z"/><path d="M320.34,13.6c0-3.4,2.21-6.19,5.3-6.19,1.22,0,2.89.38,3,1s0,1.25,0,1.6-.07.57-.2.57-.51-.52-.59-.62a3.44,3.44,0,0,0-3-1.66c-2.08,0-2.68,2.39-2.68,4.35,0,2.93,1.36,5.35,4.12,5.35,1.91,0,3-1.58,3.36-1.58.07,0,.2.08.2.16,0,.44-1.47,2.77-4.82,2.77C322.17,19.36,320.34,16.62,320.34,13.6Z"/><path d="M252.49,8.72v-7c0-.28-.14-.45-.29-.45-.37,0-.84,1-2.58,1.35-.12,0-.57.07-.57.24,0,.6,1.81-.28,1.84,1.56v12.8c0,1.39-1.19,1.21-1.41,1.65a.22.22,0,0,0,.24.28c.38,0,1.44-.11,2.18-.11s1.79.26,2.29.26c.29,0,.41-.06.41-.4-.25-.49-2.1.26-2.1-2.19v-6"/><path d="M272.42,1.64A4,4,0,0,0,268.59,4a7.76,7.76,0,0,0-.76,3.6h-1.32c-.22,0-1.11,1.21-.82,1.21h2.13v8.67c0,1.32-1.33,1-1.33,1.57,0,.22.3.17.44.17A17.11,17.11,0,0,1,269,19a11.1,11.1,0,0,1,1.84.21c.22,0,.58.08.58-.25,0-.61-2,.06-2-1.71V8.79H272c.12,0,.22-.22.29-.36a11.58,11.58,0,0,0,.55-1.09c0-.08,0-.35-.11-.35s-.39.61-1.08.61H269.5c0-1.49,0-1.83,0-2.65.11-1.29.67-2.11,1.74-2.14,1.74,0,1.49,1.16,1.88,1.16s.41-1.2.41-1.72S272.78,1.65,272.42,1.64Z"/><path d="M293.87,17c.12,2.15,1.89,1.2,1.89,2.1,0,.26-.31.26-.58.26-.46,0-1.29-.1-2.25-.1-.74,0-1.51.1-2.11.1-.21,0-.26-.13-.26-.23,0-.77,1.51-.21,1.49-2.1l-.24-9.94c0-.64-.12-1-.26-1s-.38.23-.62.77l-5,10.81c-.12.23-.5,1.28-.74,1.28s-.41-.56-.48-.74L279.63,6.77c-.07-.2-.19-.28-.29-.28s-.14.13-.17.38l-.29,9c-.12,3.41,2.16,2.28,2.16,3.2,0,.26-.26.28-.6.28s-1.39-.1-2.11-.1c-1.25,0-1.65.1-2.09.1-.17,0-.24-.13-.24-.31,0-.87,1.53.18,1.7-2.49.29-4.18.57-6.89.57-9.61,0-6-2.28-4.59-2.28-5.46,0-.23.19-.28.41-.28.43,0,.86.1,1.32.1s.86-.1,1.3-.1.38.44.5.72l5.71,13c.26.54.36.77.53.77s.36-.54.74-1.38l5.71-12.25c.14-.28.34-.9.62-.87s1,.1,1.13.1c.55,0,.77-.1,1.15-.1.14,0,.24.15.24.31,0,.82-1.92-.28-1.82,2.77Z"/><path d="M312.4,4.48c0-1.63-2-.92-2-1.49a.29.29,0,0,1,.23-.3c2-.49,2.62-1.49,3.2-1.49.15,0,.3.16.3.43V17.76c0,.39.07.34.9.36.18,0,.43,0,.41.23s-.45.58-1.15.59a7.78,7.78,0,0,0-1.6.47c-.21,0-.28-.22-.28-.41V17.5h-.05a4.7,4.7,0,0,1-3.74,1.9c-2.8,0-4.5-2.74-4.5-5.54,0-3.2,2.11-6.41,5.32-6.41a5.08,5.08,0,0,1,3,1Zm0,6.75A3.11,3.11,0,0,0,309,8.09c-2.39,0-3.46,2.39-3.46,4.64s1.53,5.51,3.94,5.51c2.11,0,2.88-1.38,2.88-2.36Z"/></g><path class="cls-7" d="M9.09,1.05h0A46.81,46.81,0,0,1,0,0V15.16c0,.24,0,.41,0,.41H0a2.72,2.72,0,0,0,.66,1.74,4.81,4.81,0,0,0,1.2.9l.48.24.41.18h0l.6.25,5.73,2.17h0l5.73-2.17.6-.25h0l.41-.18.48-.24a4.81,4.81,0,0,0,1.2-.9,2.72,2.72,0,0,0,.66-1.74h0s0-.17,0-.41V0A46.81,46.81,0,0,1,9.09,1.05Z"/><path class="cls-3" d="M9.09,2h0A42.8,42.8,0,0,1,.78,1V14.85c0,.22,0,.37,0,.38h0a2.49,2.49,0,0,0,.61,1.59,4.4,4.4,0,0,0,1.09.83l.44.22.38.16h0l.55.23,5.24,2h0l5.24-2,.55-.23h0l.38-.16.44-.22a4.4,4.4,0,0,0,1.09-.83,2.49,2.49,0,0,0,.61-1.59h0s0-.16,0-.38V1A42.8,42.8,0,0,1,9.09,2Z"/><path class="cls-4" d="M9.09,2.78h0a39.13,39.13,0,0,1-7.6-.88V5.44a39.13,39.13,0,0,0,7.6.88h0a39.13,39.13,0,0,0,7.6-.88V1.9A39.13,39.13,0,0,1,9.09,2.78Z"/><path class="cls-5" d="M9.09,6.32h0a39.13,39.13,0,0,1-7.6-.88v7.87a39.13,39.13,0,0,0,7.6.88h0a39.13,39.13,0,0,0,7.6-.88V5.44A39.13,39.13,0,0,1,9.09,6.32Z"/><path class="cls-4" d="M1.5,14.92h0a2.27,2.27,0,0,0,.55,1.46,4,4,0,0,0,1,.76l.4.2.34.15h0l.5.21,4.79,1.81h0l4.79-1.81.5-.21h0l.34-.15.4-.2a4,4,0,0,0,1-.76,2.27,2.27,0,0,0,.55-1.46h0s0-.14,0-.34V13.31a39.13,39.13,0,0,1-7.6.88h0a39.13,39.13,0,0,1-7.6-.88v1.26c0,.2,0,.34,0,.34Z"/><polygon class="cls-6" points="4.17 2.73 4.53 3.79 5.65 3.8 4.75 4.47 5.09 5.54 4.17 4.89 3.26 5.54 3.59 4.47 2.69 3.8 3.81 3.79 4.17 2.73"/><polygon class="cls-6" points="14 2.73 14.36 3.79 15.48 3.8 14.58 4.47 14.92 5.54 14 4.89 13.09 5.54 13.43 4.47 12.53 3.8 13.65 3.79 14 2.73"/><polygon class="cls-6" points="9.09 3.14 9.45 4.21 10.57 4.22 9.67 4.89 10 5.96 9.09 5.31 8.17 5.96 8.51 4.89 7.61 4.22 8.73 4.21 9.09 3.14"/><polygon class="cls-3" points="9.09 14.47 8.69 14.87 8.69 14.87 8.69 15.93 8.69 15.93 8.69 15.93 8.69 15.93 8.69 15.93 8.9 16.5 8.9 17.45 9.28 17.45 9.28 16.5 9.48 15.93 9.48 15.93 9.48 14.87 9.09 14.47"/><polygon class="cls-3" points="9.28 18.31 9.28 17.74 8.9 17.74 8.9 18.31 8.69 18.68 9.09 19.16 9.48 18.68 9.28 18.31"/><polygon class="cls-3" points="9.56 17.74 9.56 18.17 9.82 18.45 10.26 18.09 10.26 17.74 9.56 17.74"/><polygon class="cls-3" points="10.04 15.97 9.56 16.5 9.56 17.45 9.95 17.45 9.95 16.88 10.32 16.48 10.32 16.48 10.79 16.79 11.1 16.48 11.1 15.97 10.04 15.97"/><polygon class="cls-3" points="8.61 17.74 8.61 18.17 8.36 18.45 7.91 18.09 7.91 17.74 8.61 17.74"/><polygon class="cls-3" points="8.14 15.97 8.61 16.5 8.61 17.45 8.23 17.45 8.23 16.88 7.86 16.48 7.86 16.48 7.38 16.79 7.08 16.48 7.08 15.97 8.14 15.97"/><polygon class="cls-4" points="12.71 7.57 12.71 12.09 9.67 12.09 9.46 12.27 9.09 12.59 8.71 12.27 8.5 12.09 5.47 12.09 5.47 7.57 4.83 8.04 4.83 12.72 8.4 12.72 8.71 13 9.09 13.32 9.46 13 9.78 12.72 13.35 12.72 13.35 8.04 12.71 7.57"/><polygon class="cls-4" points="9.57 7.19 9.46 7.29 9.09 7.62 8.71 7.29 8.6 7.19 6.11 7.19 6.11 11.45 8.61 11.45 8.78 11.6 9.09 11.86 9.39 11.6 9.57 11.45 12.07 11.45 12.07 7.19 9.57 7.19"/><path class="cls-4" d="M14,8.52V11.4c.82-.12,1.72-.27,2.68-.47V8C15.72,8.24,14.83,8.4,14,8.52Z"/><path class="cls-4" d="M4.17,8.52C3.35,8.4,2.45,8.24,1.49,8v2.88c1,.2,1.86.35,2.68.47Z"/><polygon class="cls-3" points="14 14.09 13.73 14.37 13.73 14.37 13.73 15.11 13.73 15.11 13.73 15.11 13.73 15.11 13.73 15.11 13.87 15.51 13.87 16.17 14.14 16.17 14.14 15.51 14.28 15.11 14.28 15.11 14.28 14.37 14 14.09"/><polygon class="cls-3" points="14.14 16.77 14.14 16.38 13.87 16.38 13.87 16.77 13.73 17.03 14 17.37 14.28 17.03 14.14 16.77"/><polygon class="cls-3" points="14.34 16.38 14.34 16.68 14.52 16.88 14.83 16.63 14.83 16.38 14.34 16.38"/><polygon class="cls-3" points="14.67 15.14 14.34 15.51 14.34 16.17 14.61 16.17 14.61 15.78 14.87 15.49 14.87 15.49 15.2 15.71 15.41 15.49 15.41 15.14 14.67 15.14"/><polygon class="cls-3" points="13.67 16.38 13.67 16.68 13.49 16.88 13.18 16.63 13.18 16.38 13.67 16.38"/><polygon class="cls-3" points="13.34 15.14 13.67 15.51 13.67 16.17 13.4 16.17 13.4 15.78 13.14 15.49 13.14 15.49 12.81 15.71 12.6 15.49 12.6 15.14 13.34 15.14"/><polygon class="cls-3" points="4.17 14.09 3.9 14.37 3.9 14.37 3.9 15.11 3.9 15.11 3.9 15.11 3.9 15.11 3.9 15.11 4.04 15.51 4.04 16.17 4.3 16.17 4.3 15.51 4.45 15.11 4.45 15.11 4.45 14.37 4.17 14.09"/><polygon class="cls-3" points="4.3 16.77 4.3 16.38 4.04 16.38 4.04 16.77 3.9 17.03 4.17 17.37 4.45 17.03 4.3 16.77"/><polygon class="cls-3" points="4.5 16.38 4.5 16.68 4.68 16.88 4.99 16.63 4.99 16.38 4.5 16.38"/><polygon class="cls-3" points="4.84 15.14 4.5 15.51 4.5 16.17 4.77 16.17 4.77 15.78 5.03 15.49 5.03 15.49 5.36 15.71 5.58 15.49 5.58 15.14 4.84 15.14"/><polygon class="cls-3" points="3.84 16.38 3.84 16.68 3.66 16.88 3.35 16.63 3.35 16.38 3.84 16.38"/><polygon class="cls-3" points="3.5 15.14 3.84 15.51 3.84 16.17 3.57 16.17 3.57 15.78 3.31 15.49 3.31 15.49 2.98 15.71 2.76 15.49 2.76 15.14 3.5 15.14"/></g></svg>